HIERARCHY
ROOT joint_Root
{
	OFFSET 0.0 0.0 0.0
	CHANNELS 6 Xposition Yposition Zposition Zrotation Xrotation Yrotation 
	JOINT Hips
	{
		OFFSET 4.5925 91.4895 -427.239
		CHANNELS 6 Xposition Yposition Zposition Zrotation Xrotation Yrotation 
		JOINT Spine
		{
			OFFSET 15.7357 0.0 0.0
			CHANNELS 6 Xposition Yposition Zposition Zrotation Xrotation Yrotation 
			JOINT Chest
			{
				OFFSET 8.98455 -0.406207 0.0
				CHANNELS 6 Xposition Yposition Zposition Zrotation Xrotation Yrotation 
				JOINT Neck
				{
					OFFSET 16.3773 0.0 0.0
					CHANNELS 6 Xposition Yposition Zposition Zrotation Xrotation Yrotation 
					JOINT Head
					{
						OFFSET 6.45672 0.0 0.0
						CHANNELS 6 Xposition Yposition Zposition Zrotation Xrotation Yrotation 
						End Site
						{
							OFFSET 0.0 0.0 0.0
						}
					}
				}
				JOINT Shoulder_L
				{
					OFFSET 12.9942 -0.242716 4.98039
					CHANNELS 6 Xposition Yposition Zposition Zrotation Xrotation Yrotation 
					JOINT UpperArm_L
					{
						OFFSET 5.34809 0.0 0.0
						CHANNELS 6 Xposition Yposition Zposition Zrotation Xrotation Yrotation 
						JOINT LowerArm_L
						{
							OFFSET 24.3286 1.87007e-05 0.0
							CHANNELS 6 Xposition Yposition Zposition Zrotation Xrotation Yrotation 
							JOINT Hand_L
							{
								OFFSET 22.2916 0.0 0.0
								CHANNELS 6 Xposition Yposition Zposition Zrotation Xrotation Yrotation 
								End Site
								{
									OFFSET 0.0 0.0 0.0
								}
							}
						}
					}
				}
				JOINT Shoulder_R
				{
					OFFSET 12.9945 -0.242716 -4.98039
					CHANNELS 6 Xposition Yposition Zposition Zrotation Xrotation Yrotation 
					JOINT UpperArm_R
					{
						OFFSET -5.34813 0.0 0.0
						CHANNELS 6 Xposition Yposition Zposition Zrotation Xrotation Yrotation 
						JOINT LowerArm_R
						{
							OFFSET -24.3289 0.000322201 0.0
							CHANNELS 6 Xposition Yposition Zposition Zrotation Xrotation Yrotation 
							JOINT Hand_R
							{
								OFFSET -22.2915 -0.000108084 0.0
								CHANNELS 6 Xposition Yposition Zposition Zrotation Xrotation Yrotation 
								End Site
								{
									OFFSET 0.0 0.0 0.0
								}
							}
						}
					}
				}
			}
		}
		JOINT UpperLeg_L
		{
			OFFSET -2.19248 -6.46944 0.0
			CHANNELS 6 Xposition Yposition Zposition Zrotation Xrotation Yrotation 
			JOINT LowerLeg_L
			{
				OFFSET 39.0811 0.0 -1.23785e-05
				CHANNELS 6 Xposition Yposition Zposition Zrotation Xrotation Yrotation 
				JOINT Foot_L
				{
					OFFSET 40.9854 0.0 -1.26872e-05
					CHANNELS 6 Xposition Yposition Zposition Zrotation Xrotation Yrotation 
					JOINT Toes_L
					{
						OFFSET 11.7543 0.0 0.0
						CHANNELS 6 Xposition Yposition Zposition Zrotation Xrotation Yrotation 
						End Site
						{
							OFFSET 0.0 0.0 0.0
						}
					}
				}
			}
		}
		JOINT UpperLeg_R
		{
			OFFSET -2.19251 6.46944 0.0
			CHANNELS 6 Xposition Yposition Zposition Zrotation Xrotation Yrotation 
			JOINT LowerLeg_R
			{
				OFFSET -39.0811 -0.00228153 -0.0401928
				CHANNELS 6 Xposition Yposition Zposition Zrotation Xrotation Yrotation 
				JOINT Foot_R
				{
					OFFSET -40.9854 0.0 0.0
					CHANNELS 6 Xposition Yposition Zposition Zrotation Xrotation Yrotation 
					JOINT Toes_R
					{
						OFFSET -11.7543 0.0 0.0
						CHANNELS 6 Xposition Yposition Zposition Zrotation Xrotation Yrotation 
						End Site
						{
							OFFSET 0.0 0.0 0.0
						}
					}
				}
			}
		}
	}
}
MOTION
Frames:	6
Frame Time:	0.0333333
0.000000 0.000000 0.000000 0.000000 0.000000 -0.000000 0.427353 90.277300 1.022690 90.129000 -3.262300 11.978200 15.735700 0.000005 -0.000001 86.599400 83.337000 -86.747400 8.984550 -0.406207 -0.000000 5.535830 -0.785711 -0.257608 16.377300 -0.000001 -0.000001 17.846500 -2.934560 1.541800 6.456720 -0.000001 -0.000000 9.036650 -2.911520 -1.073140 12.994200 -0.242716 4.980390 -92.036300 6.213630 -71.814600 5.348090 -0.000007 -0.000001 -64.238300 39.967000 -12.357900 24.328600 0.000019 0.000005 8.496420 23.538100 -20.509200 22.291600 -0.000001 0.000005 8.915440 5.319480 -0.480826 12.994500 -0.242716 -4.980390 88.063800 10.859400 -79.827200 -5.348130 -0.000001 -0.000004 -64.177900 32.785000 -7.821850 -24.328900 0.000322 -0.000009 1.933260 6.004990 -17.891600 -22.291500 -0.000108 -0.000004 12.944000 5.407240 -3.174080 -2.192480 -6.469440 -0.000000 -175.260000 -13.164100 3.325100 39.081100 -0.000007 -0.000012 -0.186930 0.301265 31.819300 40.985400 -0.000006 -0.000013 0.813731 4.478730 -72.925400 11.754300 -0.000000 0.000003 -0.000195 -0.001814 -16.646000 -2.192510 6.469440 -0.000001 170.651000 21.411900 -175.236000 -39.081100 -0.002282 -0.040193 -0.207395 0.341920 31.641900 -40.985400 0.000008 0.000006 2.031860 11.130100 -73.039500 -11.754300 -0.000006 -0.000006 -0.002353 -0.033047 -17.916900
0.000000 0.000000 0.000000 0.000000 0.000000 -0.000000 0.452098 90.282700 0.914921 90.119400 -3.301070 12.064900 15.735700 0.000005 -0.000001 86.735500 83.328500 -86.918000 8.984550 -0.406207 -0.000000 5.554490 -0.754496 -0.327861 16.377300 -0.000001 -0.000001 17.714100 -2.900910 1.432000 6.456720 -0.000001 -0.000000 8.868670 -2.908090 -1.229830 12.994200 -0.242716 4.980390 -92.036800 6.215330 -71.815200 5.348090 -0.000007 -0.000001 -64.237700 40.269400 -12.579000 24.328600 0.000019 0.000005 8.628410 23.388200 -20.920000 22.291600 -0.000001 0.000005 8.918130 5.321920 -0.551025 12.994500 -0.242716 -4.980390 88.082500 10.798900 -79.868800 -5.348130 -0.000001 -0.000004 -63.856300 33.049900 -8.409750 -24.328900 0.000322 -0.000009 2.021920 6.028480 -18.589000 -22.291500 -0.000108 -0.000004 12.605600 5.408060 -3.201150 -2.192480 -6.469440 -0.000000 -175.271000 -13.180700 3.315190 39.081100 -0.000007 -0.000012 -0.183604 0.295427 31.860800 40.985400 -0.000006 -0.000013 0.840203 4.445190 -72.874800 11.754300 -0.000000 0.000003 -0.000181 -0.001702 -16.641900 -2.192510 6.469440 -0.000001 170.619000 21.392500 -175.231000 -39.081100 -0.002282 -0.040193 -0.214752 0.353861 31.641800 -40.985400 0.000008 0.000006 1.876260 11.214500 -72.920500 -11.754300 -0.000006 -0.000006 -0.002412 -0.033758 -17.945800
0.000000 0.000000 0.000000 0.000000 0.000000 -0.000000 0.501391 90.291500 0.792673 90.152600 -3.435740 12.117600 15.735700 0.000005 -0.000001 86.997100 83.310000 -87.222800 8.984550 -0.406207 -0.000000 5.594550 -0.694969 -0.416892 16.377300 -0.000001 -0.000001 17.520000 -2.805410 1.276490 6.456720 -0.000001 -0.000000 8.729820 -2.840900 -1.433820 12.994200 -0.242716 4.980390 -92.053100 6.262830 -71.808300 5.348090 -0.000007 -0.000001 -64.134700 40.429500 -12.827100 24.328600 0.000019 0.000005 8.728690 23.087500 -21.381800 22.291600 -0.000001 0.000005 9.087640 5.322660 -0.572552 12.994500 -0.242716 -4.980390 88.086700 10.769100 -79.863300 -5.348130 -0.000001 -0.000004 -63.210100 32.881400 -9.286160 -24.328900 0.000322 -0.000009 2.148020 6.036870 -19.637100 -22.291500 -0.000108 -0.000004 12.536000 5.406740 -3.157730 -2.192480 -6.469440 -0.000000 -175.338000 -13.231200 3.289870 39.081100 -0.000007 -0.000012 -0.183844 0.295800 31.861800 40.985400 -0.000006 -0.000013 0.850949 4.341770 -72.803000 11.754300 -0.000000 0.000003 -0.000195 -0.001813 -16.646000 -2.192510 6.469440 -0.000001 170.607000 21.297100 -175.342000 -39.081100 -0.002282 -0.040193 -0.210696 0.346242 31.718300 -40.985400 0.000008 0.000006 1.977820 11.218600 -72.875200 -11.754300 -0.000006 -0.000006 -0.002696 -0.037117 -18.082500
0.000000 0.000000 0.000000 0.000000 0.000000 -0.000000 0.546735 90.293600 0.661686 90.169300 -3.545610 12.180600 15.735700 0.000005 -0.000001 87.156200 83.277200 -87.416200 8.984550 -0.406207 -0.000000 5.661810 -0.660678 -0.486759 16.377300 -0.000001 -0.000001 17.380900 -2.653810 1.116290 6.456720 -0.000001 -0.000000 8.521690 -2.644960 -1.762640 12.994200 -0.242716 4.980390 -92.067200 6.310080 -71.819100 5.348090 -0.000007 -0.000001 -63.938300 40.562100 -13.154200 24.328600 0.000019 0.000005 8.840980 22.924700 -21.767300 22.291600 -0.000001 0.000005 9.123630 5.325100 -0.643125 12.994500 -0.242716 -4.980390 88.079900 10.732900 -79.795000 -5.348130 -0.000001 -0.000004 -62.341700 32.110400 -10.344300 -24.328900 0.000322 -0.000009 2.340430 6.050110 -21.204600 -22.291500 -0.000108 -0.000004 12.323400 5.406950 -3.164530 -2.192480 -6.469440 -0.000000 -175.367000 -13.329800 3.241660 39.081100 -0.000007 -0.000012 -0.181310 0.291121 31.914900 40.985400 -0.000006 -0.000013 0.881719 4.305570 -72.746300 11.754300 -0.000000 0.000003 -0.000204 -0.001882 -16.648500 -2.192510 6.469440 -0.000001 170.625000 21.093900 -175.451000 -39.081100 -0.002282 -0.040193 -0.216401 0.354711 31.773400 -40.985400 0.000008 0.000006 1.810990 11.221600 -72.755700 -11.754300 -0.000006 -0.000006 -0.002514 -0.034973 -17.995300
0.000000 0.000000 0.000000 0.000000 0.000000 -0.000000 0.591583 90.306000 0.522253 90.175500 -3.693230 12.227900 15.735700 0.000005 -0.000001 87.281000 83.268600 -87.570200 8.984550 -0.406207 -0.000000 5.680300 -0.631801 -0.546300 16.377300 -0.000001 -0.000001 17.366100 -2.455840 0.888404 6.456720 -0.000001 -0.000000 8.382280 -2.354610 -2.074160 12.994200 -0.242716 4.980390 -92.074400 6.343870 -71.850600 5.348090 -0.000007 -0.000001 -63.658700 40.817800 -13.508200 24.328600 0.000019 0.000005 8.877080 22.773000 -21.973800 22.291600 -0.000001 0.000005 9.264330 5.325190 -0.645489 12.994500 -0.242716 -4.980390 88.088300 10.654000 -79.765800 -5.348130 -0.000001 -0.000004 -61.202600 31.148600 -11.521600 -24.328900 0.000322 -0.000009 2.357290 5.470910 -23.363700 -22.291500 -0.000108 -0.000004 12.359300 5.405740 -3.124920 -2.192480 -6.469440 -0.000000 -175.385000 -13.455000 3.204170 39.081100 -0.000007 -0.000012 -0.179957 0.288886 31.920400 40.985400 -0.000006 -0.000013 0.917720 4.279890 -72.667000 11.754300 -0.000000 0.000003 -0.000198 -0.001840 -16.647000 -2.192510 6.469440 -0.000001 170.657000 20.991100 -175.569000 -39.081100 -0.002282 -0.040193 -0.215346 0.352349 31.821200 -40.985400 0.000008 0.000006 1.889140 11.212600 -72.677300 -11.754300 -0.000006 -0.000006 -0.002576 -0.035714 -18.025400
0.000000 0.000000 0.000000 0.000000 0.000000 -0.000000 0.653345 90.310100 0.401780 90.180400 -3.853960 12.292500 15.735700 0.000005 -0.000001 87.327400 83.270500 -87.647800 8.984550 -0.406207 -0.000000 5.677000 -0.620198 -0.609168 16.377300 -0.000001 -0.000001 17.399200 -2.218170 0.653214 6.456720 -0.000001 -0.000000 8.356260 -2.026220 -2.426280 12.994200 -0.242716 4.980390 -92.080500 6.359680 -71.842800 5.348090 -0.000007 -0.000001 -63.385200 40.939200 -13.816300 24.328600 0.000019 0.000005 8.940580 22.801500 -22.094600 22.291600 -0.000001 0.000005 9.256070 5.323430 -0.595068 12.994500 -0.242716 -4.980390 88.120700 10.467500 -79.762300 -5.348130 -0.000001 -0.000004 -59.925100 29.923000 -12.906000 -24.328900 0.000322 -0.000009 2.401230 4.956070 -25.902500 -22.291500 -0.000108 -0.000004 12.365300 5.404070 -3.069950 -2.192480 -6.469440 -0.000000 -175.406000 -13.596300 3.181470 39.081100 -0.000007 -0.000012 -0.176386 0.282734 31.958600 40.985400 -0.000006 -0.000013 0.957026 4.227090 -72.618000 11.754300 -0.000000 0.000003 -0.000192 -0.001788 -16.645100 -2.192510 6.469440 -0.000001 170.641000 20.888000 -175.661000 -39.081100 -0.002282 -0.040193 -0.217762 0.355494 31.875200 -40.985400 0.000008 0.000006 1.852350 11.291100 -72.581300 -11.754300 -0.000006 -0.000006 -0.002819 -0.038536 -18.140200
